<svg xmlns="http://www.w3.org/2000/svg" width="780" height="360" viewBox="0 0 780 360" fill="none" style="font-family:Noto Sans CJK SC, PingFang SC, Microsoft YaHei, Arial, sans-serif;">

<defs>
  <linearGradient id="blueMain" x1="0" y1="0" x2="1" y2="1">
    <stop offset="0" stop-color="#1A67FF"/>
    <stop offset="0.52" stop-color="#208BFF"/>
    <stop offset="1" stop-color="#31D4FF"/>
  </linearGradient>
  <linearGradient id="blueDeep" x1="0" y1="0" x2="1" y2="1">
    <stop offset="0" stop-color="#0B55E8"/>
    <stop offset="1" stop-color="#25B8FF"/>
  </linearGradient>
  <linearGradient id="blueSoft" x1="0" y1="0" x2="1" y2="1">
    <stop offset="0" stop-color="#F8FCFF"/>
    <stop offset="0.54" stop-color="#EEF7FF"/>
    <stop offset="1" stop-color="#DCEEFF"/>
  </linearGradient>
  <linearGradient id="glass" x1="0" y1="0" x2="1" y2="1">
    <stop offset="0" stop-color="#FFFFFF" stop-opacity="0.96"/>
    <stop offset="1" stop-color="#ECF6FF" stop-opacity="0.76"/>
  </linearGradient>
  <linearGradient id="cubeTop" x1="0" y1="0" x2="1" y2="1">
    <stop offset="0" stop-color="#56E0FF"/>
    <stop offset="1" stop-color="#1979FF"/>
  </linearGradient>
  <linearGradient id="cubeFront" x1="0" y1="0" x2="1" y2="1">
    <stop offset="0" stop-color="#27C8FF"/>
    <stop offset="0.55" stop-color="#1E86FF"/>
    <stop offset="1" stop-color="#125EE8"/>
  </linearGradient>
  <linearGradient id="cubeSide" x1="0" y1="0" x2="1" y2="1">
    <stop offset="0" stop-color="#2B9CFF"/>
    <stop offset="1" stop-color="#0649D8"/>
  </linearGradient>
  <radialGradient id="aura" cx="50%" cy="50%" r="60%">
    <stop offset="0" stop-color="#2ED8FF" stop-opacity="0.65"/>
    <stop offset="0.55" stop-color="#1B7CFF" stop-opacity="0.16"/>
    <stop offset="1" stop-color="#1B7CFF" stop-opacity="0"/>
  </radialGradient>
  <filter id="softShadow" x="-35%" y="-35%" width="170%" height="170%">
    <feDropShadow dx="0" dy="18" stdDeviation="18" flood-color="#286FC8" flood-opacity="0.22"/>
  </filter>
  <filter id="smallShadow" x="-35%" y="-35%" width="170%" height="170%">
    <feDropShadow dx="0" dy="8" stdDeviation="8" flood-color="#1B6ED0" flood-opacity="0.18"/>
  </filter>
  <filter id="glow" x="-80%" y="-80%" width="260%" height="260%">
    <feGaussianBlur stdDeviation="8" result="blur"/>
    <feColorMatrix in="blur" type="matrix" values="0 0 0 0 0.1  0 0 0 0 0.62  0 0 0 0 1  0 0 0 .6 0" result="glow"/>
    <feMerge><feMergeNode in="glow"/><feMergeNode in="SourceGraphic"/></feMerge>
  </filter>
</defs>



    
    <rect x="50" y="50" width="680" height="260" rx="38" fill="url(#glass)" stroke="#C0DAFF" stroke-width="3" filter="url(#softShadow)"/>
    <rect x="60" y="60" width="660" height="240" rx="30" fill="#FFFFFF" opacity="0.22"/>
    
    
    <ellipse cx="225" cy="249" rx="106" ry="26" fill="#BCD8FF" opacity="0.24"/>
    <rect x="147" y="211" width="156" height="64*s" rx="18" fill="url(#glass)" stroke="#B8D7FF" stroke-width="3"/>
    <path d="M 161 265 H 289" stroke="#1E88FF" stroke-width="5" stroke-linecap="round" opacity="0.65"/>
    
    <g filter="url(#smallShadow)">
      <path d="M 181.0 126.0 H 283.0 C 308.0 126.0 325.0 145.0 325.0 170.0 V 182.0 C 325.0 208.0 305.0 226.0 278.0 226.0 H 241.0 L 209.0 252.0 L 215.0 226.0 H 181.0 C 155.0 226.0 137.0 207.0 137.0 182.0 V 170.0 C 137.0 145.0 156.0 126.0 181.0 126.0 Z" fill="url(#blueDeep)"/>
      <circle cx="193.0" cy="178.0" r="8.0" fill="#FFFFFF" opacity="0.92"/>
      <circle cx="231.0" cy="178.0" r="8.0" fill="#FFFFFF" opacity="0.92"/>
      <circle cx="269.0" cy="178.0" r="8.0" fill="#FFFFFF" opacity="0.92"/>
    </g>
    <text x="390" y="154" font-size="54" font-weight="800" fill="#102A55">IM 通道</text>
    <text x="390" y="223" font-size="34" font-weight="500" fill="#63718B">企微 / 钉钉</text>
    
</svg>