<svg xmlns="http://www.w3.org/2000/svg" width="780" height="360" viewBox="0 0 780 360" fill="none" style="font-family:Noto Sans CJK SC, PingFang SC, Microsoft YaHei, Arial, sans-serif;">

<defs>
  <linearGradient id="blueMain" x1="0" y1="0" x2="1" y2="1">
    <stop offset="0" stop-color="#1A67FF"/>
    <stop offset="0.52" stop-color="#208BFF"/>
    <stop offset="1" stop-color="#31D4FF"/>
  </linearGradient>
  <linearGradient id="blueDeep" x1="0" y1="0" x2="1" y2="1">
    <stop offset="0" stop-color="#0B55E8"/>
    <stop offset="1" stop-color="#25B8FF"/>
  </linearGradient>
  <linearGradient id="blueSoft" x1="0" y1="0" x2="1" y2="1">
    <stop offset="0" stop-color="#F8FCFF"/>
    <stop offset="0.54" stop-color="#EEF7FF"/>
    <stop offset="1" stop-color="#DCEEFF"/>
  </linearGradient>
  <linearGradient id="glass" x1="0" y1="0" x2="1" y2="1">
    <stop offset="0" stop-color="#FFFFFF" stop-opacity="0.96"/>
    <stop offset="1" stop-color="#ECF6FF" stop-opacity="0.76"/>
  </linearGradient>
  <linearGradient id="cubeTop" x1="0" y1="0" x2="1" y2="1">
    <stop offset="0" stop-color="#56E0FF"/>
    <stop offset="1" stop-color="#1979FF"/>
  </linearGradient>
  <linearGradient id="cubeFront" x1="0" y1="0" x2="1" y2="1">
    <stop offset="0" stop-color="#27C8FF"/>
    <stop offset="0.55" stop-color="#1E86FF"/>
    <stop offset="1" stop-color="#125EE8"/>
  </linearGradient>
  <linearGradient id="cubeSide" x1="0" y1="0" x2="1" y2="1">
    <stop offset="0" stop-color="#2B9CFF"/>
    <stop offset="1" stop-color="#0649D8"/>
  </linearGradient>
  <radialGradient id="aura" cx="50%" cy="50%" r="60%">
    <stop offset="0" stop-color="#2ED8FF" stop-opacity="0.65"/>
    <stop offset="0.55" stop-color="#1B7CFF" stop-opacity="0.16"/>
    <stop offset="1" stop-color="#1B7CFF" stop-opacity="0"/>
  </radialGradient>
  <filter id="softShadow" x="-35%" y="-35%" width="170%" height="170%">
    <feDropShadow dx="0" dy="18" stdDeviation="18" flood-color="#286FC8" flood-opacity="0.22"/>
  </filter>
  <filter id="smallShadow" x="-35%" y="-35%" width="170%" height="170%">
    <feDropShadow dx="0" dy="8" stdDeviation="8" flood-color="#1B6ED0" flood-opacity="0.18"/>
  </filter>
  <filter id="glow" x="-80%" y="-80%" width="260%" height="260%">
    <feGaussianBlur stdDeviation="8" result="blur"/>
    <feColorMatrix in="blur" type="matrix" values="0 0 0 0 0.1  0 0 0 0 0.62  0 0 0 0 1  0 0 0 .6 0" result="glow"/>
    <feMerge><feMergeNode in="glow"/><feMergeNode in="SourceGraphic"/></feMerge>
  </filter>
</defs>



    
    <rect x="50" y="50" width="680" height="260" rx="38" fill="url(#glass)" stroke="#C0DAFF" stroke-width="3" filter="url(#softShadow)"/>
    <rect x="60" y="60" width="660" height="240" rx="30" fill="#FFFFFF" opacity="0.22"/>
    
    
    <ellipse cx="225" cy="249" rx="106" ry="26" fill="#BCD8FF" opacity="0.24"/>
    <rect x="147" y="211" width="156" height="64*s" rx="18" fill="url(#glass)" stroke="#B8D7FF" stroke-width="3"/>
    <path d="M 161 265 H 289" stroke="#1E88FF" stroke-width="5" stroke-linecap="round" opacity="0.65"/>
    
    <g filter="url(#smallShadow)" stroke="url(#blueDeep)" stroke-width="15.0" stroke-linecap="round" stroke-linejoin="round" fill="none">
      <path d="M 251.0 140.0 C 287.0 164.0 289.0 209.0 253.0 234.0"/>
      <path d="M 233.0 235.0 C 193.0 234.0 169.0 202.0 180.0 165.0"/>
      <path d="M 197.0 154.0 C 220.0 121.0 269.0 122.0 291.0 156.0" opacity="0.55"/>
      <circle cx="245.0" cy="142.0" r="16.0" fill="#F6FBFF" stroke="url(#blueDeep)"/>
      <circle cx="185.0" cy="172.0" r="16.0" fill="#F6FBFF" stroke="url(#blueDeep)"/>
      <circle cx="259.0" cy="232.0" r="16.0" fill="#F6FBFF" stroke="url(#blueDeep)"/>
    </g>
    <text x="390" y="154" font-size="54" font-weight="800" fill="#102A55">Webhook</text>
    <text x="390" y="223" font-size="34" font-weight="500" fill="#63718B">系统回调</text>
    
</svg>