<svg xmlns="http://www.w3.org/2000/svg" width="1000" height="1000" viewBox="0 0 1000 1000" fill="none" style="font-family:Noto Sans CJK SC, PingFang SC, Microsoft YaHei, Arial, sans-serif;">

<defs>
  <linearGradient id="blueMain" x1="0" y1="0" x2="1" y2="1">
    <stop offset="0" stop-color="#1A67FF"/>
    <stop offset="0.52" stop-color="#208BFF"/>
    <stop offset="1" stop-color="#31D4FF"/>
  </linearGradient>
  <linearGradient id="blueDeep" x1="0" y1="0" x2="1" y2="1">
    <stop offset="0" stop-color="#0B55E8"/>
    <stop offset="1" stop-color="#25B8FF"/>
  </linearGradient>
  <linearGradient id="blueSoft" x1="0" y1="0" x2="1" y2="1">
    <stop offset="0" stop-color="#F8FCFF"/>
    <stop offset="0.54" stop-color="#EEF7FF"/>
    <stop offset="1" stop-color="#DCEEFF"/>
  </linearGradient>
  <linearGradient id="glass" x1="0" y1="0" x2="1" y2="1">
    <stop offset="0" stop-color="#FFFFFF" stop-opacity="0.96"/>
    <stop offset="1" stop-color="#ECF6FF" stop-opacity="0.76"/>
  </linearGradient>
  <linearGradient id="cubeTop" x1="0" y1="0" x2="1" y2="1">
    <stop offset="0" stop-color="#56E0FF"/>
    <stop offset="1" stop-color="#1979FF"/>
  </linearGradient>
  <linearGradient id="cubeFront" x1="0" y1="0" x2="1" y2="1">
    <stop offset="0" stop-color="#27C8FF"/>
    <stop offset="0.55" stop-color="#1E86FF"/>
    <stop offset="1" stop-color="#125EE8"/>
  </linearGradient>
  <linearGradient id="cubeSide" x1="0" y1="0" x2="1" y2="1">
    <stop offset="0" stop-color="#2B9CFF"/>
    <stop offset="1" stop-color="#0649D8"/>
  </linearGradient>
  <radialGradient id="aura" cx="50%" cy="50%" r="60%">
    <stop offset="0" stop-color="#2ED8FF" stop-opacity="0.65"/>
    <stop offset="0.55" stop-color="#1B7CFF" stop-opacity="0.16"/>
    <stop offset="1" stop-color="#1B7CFF" stop-opacity="0"/>
  </radialGradient>
  <filter id="softShadow" x="-35%" y="-35%" width="170%" height="170%">
    <feDropShadow dx="0" dy="18" stdDeviation="18" flood-color="#286FC8" flood-opacity="0.22"/>
  </filter>
  <filter id="smallShadow" x="-35%" y="-35%" width="170%" height="170%">
    <feDropShadow dx="0" dy="8" stdDeviation="8" flood-color="#1B6ED0" flood-opacity="0.18"/>
  </filter>
  <filter id="glow" x="-80%" y="-80%" width="260%" height="260%">
    <feGaussianBlur stdDeviation="8" result="blur"/>
    <feColorMatrix in="blur" type="matrix" values="0 0 0 0 0.1  0 0 0 0 0.62  0 0 0 0 1  0 0 0 .6 0" result="glow"/>
    <feMerge><feMergeNode in="glow"/><feMergeNode in="SourceGraphic"/></feMerge>
  </filter>
</defs>



<ellipse cx="500" cy="760" rx="350" ry="72" fill="#C7E2FF" opacity="0.24"/>
<rect x="250" y="615" width="500" height="150" rx="42" fill="url(#glass)" stroke="#C0DAFF" stroke-width="4" filter="url(#softShadow)"/>
<ellipse cx="500" cy="640" rx="205" ry="52" fill="#EAF6FF" stroke="#A5CBFF" stroke-width="4"/>

    <g filter="url(#smallShadow)">
      <path d="M 500.5 210 C 539.6 235.3 577.55 237.6 599.4 242.2 V 312.35 C 599.4 373.29999999999995 555.7 415.85 500.5 436.54999999999995 C 445.3 415.85 401.6 373.29999999999995 401.6 312.35 V 242.2 C 425.75 237.6 461.4 235.3 500.5 210 Z" fill="url(#blueSoft)" stroke="#8EBBFF" stroke-width="3.4499999999999997"/>
      <path d="M 500.5 230.7 C 532.7 251.4 563.75 256.0 581.0 259.45 V 313.5 C 581.0 359.5 548.8 394.0 500.5 413.54999999999995 C 452.2 394.0 420 359.5 420 313.5 V 259.45 C 437.25 256.0 468.3 251.4 500.5 230.7 Z" fill="url(#blueMain)" opacity="0.24"/>
      <path d="M 464.85 325.0 L 490.725 350.875 L 543.51 298.09000000000003" stroke="#18B9FF" stroke-width="16.56" stroke-linecap="round" stroke-linejoin="round"/>
    </g>
    
<path d="M 300 735 H700" stroke="#1E88FF" stroke-opacity="0.62" stroke-width="8" stroke-linecap="round"/>

</svg>