<svg xmlns="http://www.w3.org/2000/svg" width="480" height="220" viewBox="0 0 480 220" fill="none" style="font-family:Noto Sans CJK SC, PingFang SC, Microsoft YaHei, Arial, sans-serif;">

<defs>
  <linearGradient id="blueMain" x1="0" y1="0" x2="1" y2="1">
    <stop offset="0" stop-color="#1A67FF"/>
    <stop offset="0.52" stop-color="#208BFF"/>
    <stop offset="1" stop-color="#31D4FF"/>
  </linearGradient>
  <linearGradient id="blueDeep" x1="0" y1="0" x2="1" y2="1">
    <stop offset="0" stop-color="#0B55E8"/>
    <stop offset="1" stop-color="#25B8FF"/>
  </linearGradient>
  <linearGradient id="blueSoft" x1="0" y1="0" x2="1" y2="1">
    <stop offset="0" stop-color="#F8FCFF"/>
    <stop offset="0.54" stop-color="#EEF7FF"/>
    <stop offset="1" stop-color="#DCEEFF"/>
  </linearGradient>
  <linearGradient id="glass" x1="0" y1="0" x2="1" y2="1">
    <stop offset="0" stop-color="#FFFFFF" stop-opacity="0.96"/>
    <stop offset="1" stop-color="#ECF6FF" stop-opacity="0.76"/>
  </linearGradient>
  <linearGradient id="cubeTop" x1="0" y1="0" x2="1" y2="1">
    <stop offset="0" stop-color="#56E0FF"/>
    <stop offset="1" stop-color="#1979FF"/>
  </linearGradient>
  <linearGradient id="cubeFront" x1="0" y1="0" x2="1" y2="1">
    <stop offset="0" stop-color="#27C8FF"/>
    <stop offset="0.55" stop-color="#1E86FF"/>
    <stop offset="1" stop-color="#125EE8"/>
  </linearGradient>
  <linearGradient id="cubeSide" x1="0" y1="0" x2="1" y2="1">
    <stop offset="0" stop-color="#2B9CFF"/>
    <stop offset="1" stop-color="#0649D8"/>
  </linearGradient>
  <radialGradient id="aura" cx="50%" cy="50%" r="60%">
    <stop offset="0" stop-color="#2ED8FF" stop-opacity="0.65"/>
    <stop offset="0.55" stop-color="#1B7CFF" stop-opacity="0.16"/>
    <stop offset="1" stop-color="#1B7CFF" stop-opacity="0"/>
  </radialGradient>
  <filter id="softShadow" x="-35%" y="-35%" width="170%" height="170%">
    <feDropShadow dx="0" dy="18" stdDeviation="18" flood-color="#286FC8" flood-opacity="0.22"/>
  </filter>
  <filter id="smallShadow" x="-35%" y="-35%" width="170%" height="170%">
    <feDropShadow dx="0" dy="8" stdDeviation="8" flood-color="#1B6ED0" flood-opacity="0.18"/>
  </filter>
  <filter id="glow" x="-80%" y="-80%" width="260%" height="260%">
    <feGaussianBlur stdDeviation="8" result="blur"/>
    <feColorMatrix in="blur" type="matrix" values="0 0 0 0 0.1  0 0 0 0 0.62  0 0 0 0 1  0 0 0 .6 0" result="glow"/>
    <feMerge><feMergeNode in="glow"/><feMergeNode in="SourceGraphic"/></feMerge>
  </filter>
</defs>



    <rect x="26" y="26" width="428" height="168" rx="30" fill="url(#glass)" stroke="#C0DAFF" stroke-width="3" filter="url(#softShadow)"/>
    <text x="70" y="98" font-size="56" font-weight="850" fill="#1B70FF">99.9%</text>
    <text x="70" y="148" font-size="28" fill="#40536E">链路可用</text>
    
    <g filter="url(#smallShadow)">
      <path d="M 344.6 34 C 357.52 42.36 370.06 43.120000000000005 377.28 44.64 V 67.82 C 377.28 87.96000000000001 362.84000000000003 102.02 344.6 108.86 C 326.36 102.02 311.92 87.96000000000001 311.92 67.82 V 44.64 C 319.9 43.120000000000005 331.68 42.36 344.6 34 Z" fill="url(#blueSoft)" stroke="#8EBBFF" stroke-width="1.1400000000000001"/>
      <path d="M 344.6 40.84 C 355.24 47.68 365.5 49.2 371.2 50.34 V 68.2 C 371.2 83.4 360.56 94.8 344.6 101.26 C 328.64 94.8 318 83.4 318 68.2 V 50.34 C 323.7 49.2 333.96 47.68 344.6 40.84 Z" fill="url(#blueMain)" opacity="0.24"/>
      <path d="M 332.82 72.0 L 341.37 80.55 L 358.81199999999995 63.108000000000004" stroke="#18B9FF" stroke-width="5.472" stroke-linecap="round" stroke-linejoin="round"/>
    </g>
    
    
</svg>