<svg xmlns="http://www.w3.org/2000/svg" width="1000" height="900" viewBox="0 0 1000 900" fill="none" style="font-family:Noto Sans CJK SC, PingFang SC, Microsoft YaHei, Arial, sans-serif;">

<defs>
  <linearGradient id="blueMain" x1="0" y1="0" x2="1" y2="1">
    <stop offset="0" stop-color="#1A67FF"/>
    <stop offset="0.52" stop-color="#208BFF"/>
    <stop offset="1" stop-color="#31D4FF"/>
  </linearGradient>
  <linearGradient id="blueDeep" x1="0" y1="0" x2="1" y2="1">
    <stop offset="0" stop-color="#0B55E8"/>
    <stop offset="1" stop-color="#25B8FF"/>
  </linearGradient>
  <linearGradient id="blueSoft" x1="0" y1="0" x2="1" y2="1">
    <stop offset="0" stop-color="#F8FCFF"/>
    <stop offset="0.54" stop-color="#EEF7FF"/>
    <stop offset="1" stop-color="#DCEEFF"/>
  </linearGradient>
  <linearGradient id="glass" x1="0" y1="0" x2="1" y2="1">
    <stop offset="0" stop-color="#FFFFFF" stop-opacity="0.96"/>
    <stop offset="1" stop-color="#ECF6FF" stop-opacity="0.76"/>
  </linearGradient>
  <linearGradient id="cubeTop" x1="0" y1="0" x2="1" y2="1">
    <stop offset="0" stop-color="#56E0FF"/>
    <stop offset="1" stop-color="#1979FF"/>
  </linearGradient>
  <linearGradient id="cubeFront" x1="0" y1="0" x2="1" y2="1">
    <stop offset="0" stop-color="#27C8FF"/>
    <stop offset="0.55" stop-color="#1E86FF"/>
    <stop offset="1" stop-color="#125EE8"/>
  </linearGradient>
  <linearGradient id="cubeSide" x1="0" y1="0" x2="1" y2="1">
    <stop offset="0" stop-color="#2B9CFF"/>
    <stop offset="1" stop-color="#0649D8"/>
  </linearGradient>
  <radialGradient id="aura" cx="50%" cy="50%" r="60%">
    <stop offset="0" stop-color="#2ED8FF" stop-opacity="0.65"/>
    <stop offset="0.55" stop-color="#1B7CFF" stop-opacity="0.16"/>
    <stop offset="1" stop-color="#1B7CFF" stop-opacity="0"/>
  </radialGradient>
  <filter id="softShadow" x="-35%" y="-35%" width="170%" height="170%">
    <feDropShadow dx="0" dy="18" stdDeviation="18" flood-color="#286FC8" flood-opacity="0.22"/>
  </filter>
  <filter id="smallShadow" x="-35%" y="-35%" width="170%" height="170%">
    <feDropShadow dx="0" dy="8" stdDeviation="8" flood-color="#1B6ED0" flood-opacity="0.18"/>
  </filter>
  <filter id="glow" x="-80%" y="-80%" width="260%" height="260%">
    <feGaussianBlur stdDeviation="8" result="blur"/>
    <feColorMatrix in="blur" type="matrix" values="0 0 0 0 0.1  0 0 0 0 0.62  0 0 0 0 1  0 0 0 .6 0" result="glow"/>
    <feMerge><feMergeNode in="glow"/><feMergeNode in="SourceGraphic"/></feMerge>
  </filter>
</defs>



<ellipse cx="500" cy="740" rx="390" ry="100" fill="url(#aura)"/>
<ellipse cx="500" cy="760" rx="330" ry="74" fill="#BEDBFF" opacity="0.22"/>
<ellipse cx="500" cy="700" rx="305" ry="82" fill="#F6FCFF" stroke="#B2D4FF" stroke-width="4" filter="url(#softShadow)"/>
<ellipse cx="500" cy="700" rx="252" ry="60" fill="none" stroke="#18CBFF" stroke-width="16" stroke-opacity="0.82"/>
<rect x="310" y="510" width="380" height="132" rx="32" fill="url(#glass)" stroke="#B8D7FF" stroke-width="4" filter="url(#smallShadow)"/>
<rect x="374" y="470" width="252" height="90" rx="24" fill="#DDEEFF" stroke="#9EC8FF" stroke-width="3" opacity="0.9"/>
<g filter="url(#softShadow)">
  <polygon points="380,362 500,292 700,360 574,438" fill="url(#cubeTop)"/>
  <polygon points="380,362 574,438 574,598 380,520" fill="url(#cubeFront)"/>
  <polygon points="574,438 700,360 700,520 574,598" fill="url(#cubeSide)"/>
  <path d="M380 362 L574 438 L700 360" stroke="#BDF4FF" stroke-width="5" stroke-linejoin="round" opacity="0.82"/>
  <path d="M574 438 V598" stroke="#BDF4FF" stroke-width="4" opacity="0.58"/>
  <circle cx="500" cy="318" r="13" fill="#EBFFFF" filter="url(#glow)"/>
  <g><line x1="434.75" y1="488.5" x2="475" y2="456.3" stroke="#FFFFFF" stroke-width="9.2" stroke-linecap="round" opacity="0.95"/><line x1="475" y1="456.3" x2="521.0" y2="511.5" stroke="#FFFFFF" stroke-width="9.2" stroke-linecap="round" opacity="0.95"/><line x1="521.0" y1="511.5" x2="463.5" y2="540.25" stroke="#FFFFFF" stroke-width="9.2" stroke-linecap="round" opacity="0.95"/><circle cx="434.75" cy="488.5" r="11.5" fill="#FFFFFF"/><circle cx="475" cy="456.3" r="11.5" fill="#FFFFFF"/><circle cx="521.0" cy="511.5" r="11.5" fill="#FFFFFF"/><circle cx="463.5" cy="540.25" r="11.5" fill="#FFFFFF"/></g>
</g>
<g filter="url(#smallShadow)">
  <rect x="266" y="62" width="470" height="170" rx="34" fill="url(#glass)" stroke="#BBD7FF" stroke-width="3"/>
  <path d="M460 232 L505 280 L550 232" fill="url(#glass)" stroke="#BBD7FF" stroke-width="3"/>
  <text x="500" y="130" text-anchor="middle" font-size="45" font-weight="800" fill="#1C6DFF">Route Engine</text>
  <text x="500" y="185" text-anchor="middle" font-size="29" font-weight="500" fill="#5D7193">规则匹配 · 标签路由</text>
</g>

</svg>