<svg xmlns="http://www.w3.org/2000/svg" width="1000" height="560" viewBox="0 0 1000 560" fill="none" style="font-family:Noto Sans CJK SC, PingFang SC, Microsoft YaHei, Arial, sans-serif;">

<defs>
  <linearGradient id="blueMain" x1="0" y1="0" x2="1" y2="1">
    <stop offset="0" stop-color="#1A67FF"/>
    <stop offset="0.52" stop-color="#208BFF"/>
    <stop offset="1" stop-color="#31D4FF"/>
  </linearGradient>
  <linearGradient id="blueDeep" x1="0" y1="0" x2="1" y2="1">
    <stop offset="0" stop-color="#0B55E8"/>
    <stop offset="1" stop-color="#25B8FF"/>
  </linearGradient>
  <linearGradient id="blueSoft" x1="0" y1="0" x2="1" y2="1">
    <stop offset="0" stop-color="#F8FCFF"/>
    <stop offset="0.54" stop-color="#EEF7FF"/>
    <stop offset="1" stop-color="#DCEEFF"/>
  </linearGradient>
  <linearGradient id="glass" x1="0" y1="0" x2="1" y2="1">
    <stop offset="0" stop-color="#FFFFFF" stop-opacity="0.96"/>
    <stop offset="1" stop-color="#ECF6FF" stop-opacity="0.76"/>
  </linearGradient>
  <linearGradient id="cubeTop" x1="0" y1="0" x2="1" y2="1">
    <stop offset="0" stop-color="#56E0FF"/>
    <stop offset="1" stop-color="#1979FF"/>
  </linearGradient>
  <linearGradient id="cubeFront" x1="0" y1="0" x2="1" y2="1">
    <stop offset="0" stop-color="#27C8FF"/>
    <stop offset="0.55" stop-color="#1E86FF"/>
    <stop offset="1" stop-color="#125EE8"/>
  </linearGradient>
  <linearGradient id="cubeSide" x1="0" y1="0" x2="1" y2="1">
    <stop offset="0" stop-color="#2B9CFF"/>
    <stop offset="1" stop-color="#0649D8"/>
  </linearGradient>
  <radialGradient id="aura" cx="50%" cy="50%" r="60%">
    <stop offset="0" stop-color="#2ED8FF" stop-opacity="0.65"/>
    <stop offset="0.55" stop-color="#1B7CFF" stop-opacity="0.16"/>
    <stop offset="1" stop-color="#1B7CFF" stop-opacity="0"/>
  </radialGradient>
  <filter id="softShadow" x="-35%" y="-35%" width="170%" height="170%">
    <feDropShadow dx="0" dy="18" stdDeviation="18" flood-color="#286FC8" flood-opacity="0.22"/>
  </filter>
  <filter id="smallShadow" x="-35%" y="-35%" width="170%" height="170%">
    <feDropShadow dx="0" dy="8" stdDeviation="8" flood-color="#1B6ED0" flood-opacity="0.18"/>
  </filter>
  <filter id="glow" x="-80%" y="-80%" width="260%" height="260%">
    <feGaussianBlur stdDeviation="8" result="blur"/>
    <feColorMatrix in="blur" type="matrix" values="0 0 0 0 0.1  0 0 0 0 0.62  0 0 0 0 1  0 0 0 .6 0" result="glow"/>
    <feMerge><feMergeNode in="glow"/><feMergeNode in="SourceGraphic"/></feMerge>
  </filter>
</defs>



<g stroke="#25AFFF" stroke-width="5" fill="none" stroke-linecap="round" stroke-linejoin="round" filter="url(#glow)">
  <path d="M125 280 C260 280 300 280 405 280"/>
  <path d="M520 230 C650 130 725 90 900 88"/>
  <path d="M528 274 C675 250 760 232 905 242"/>
  <path d="M520 316 C666 380 755 435 910 438"/>
  <path d="M478 340 C420 460 330 495 180 492"/>
</g>
<g fill="#2CD5FF" filter="url(#glow)">
  <circle cx="405" cy="280" r="8"/><circle cx="900" cy="88" r="8"/><circle cx="905" cy="242" r="8"/><circle cx="910" cy="438" r="8"/><circle cx="180" cy="492" r="8"/>
</g>
<g fill="#1F73FF">
  <path d="M405 280 L380 266 V294 Z"/>
  <path d="M900 88 L876 76 L880 104 Z"/>
  <path d="M905 242 L879 230 L879 256 Z"/>
  <path d="M910 438 L883 426 L884 453 Z"/>
  <path d="M180 492 L205 480 V506 Z"/>
</g>

</svg>